<?xml version="1.0" encoding="utf-8"?>
<!DOCTYPE svg PUBLIC "-//W3C//DTD SVG 1.0//EN" "http://www.w3.org/TR/2001/REC-SVG-20010904/DTD/svg10.dtd">
<svg version="1.0" xmlns="http://www.w3.org/2000/svg" width="300px" height="270px" viewBox="0 0 300 270" preserveAspectRatio="xMidYMid meet">
   <defs>
      <linearGradient id="lg0" gradientUnits="userSpaceOnUse" x1="-7.1100917%" y1="13.647959%" x2="99.65596%" y2="82.27041%">
         <stop offset="0%" style="stop-color:rgb(0,1,7);"></stop>
         <stop offset="13%" style="stop-color:rgb(0,1,7);"></stop>
         <stop offset="14%" style="stop-color:rgb(2,5,19);"></stop>
         <stop offset="15%" style="stop-color:rgb(7,10,24);"></stop>
         <stop offset="16%" style="stop-color:rgb(5,9,21);"></stop>
         <stop offset="17%" style="stop-color:rgb(6,9,20);"></stop>
         <stop offset="18%" style="stop-color:rgb(5,8,15);"></stop>
         <stop offset="31%" style="stop-color:rgb(4,5,8);"></stop>
         <stop offset="33%" style="stop-color:rgb(3,5,12);"></stop>
         <stop offset="48%" style="stop-color:rgb(4,8,17);"></stop>
         <stop offset="49%" style="stop-color:rgb(4,8,20);"></stop>
         <stop offset="51%" style="stop-color:rgb(3,6,18);"></stop>
         <stop offset="54%" style="stop-color:rgb(6,12,26);"></stop>
         <stop offset="55%" style="stop-color:rgb(4,8,19);"></stop>
         <stop offset="66%" style="stop-color:rgb(2,3,11);"></stop>
         <stop offset="67%" style="stop-color:rgb(2,3,13);"></stop>
         <stop offset="71%" style="stop-color:rgb(5,7,12);"></stop>
         <stop offset="80%" style="stop-color:rgb(1,2,4);"></stop>
         <stop offset="83%" style="stop-color:rgb(6,7,10);"></stop>
         <stop offset="99%" style="stop-color:rgb(2,2,4);"></stop>
         <stop offset="100%" style="stop-color:rgb(0,1,7);"></stop>
      </linearGradient>
   </defs>
 <g fill="#000000">
  <path fill="url(#lg0)" d="M 172.53 267.63 c -3.30 -3.37 -5.19 -4.44 -11.01 -6.12 -1.89 -0.55 -2.89 -1.14 -4.64 -2.61 -4.89 -4.16 -4.61 -6.50 1.03 -9.43 1.51 -0.79 2.75 -1.62 2.75 -1.86 0.03 -0.24 0.07 -1.31 0.10 -2.37 0.07 -2.37 0.69 -3.27 3.61 -5.44 5.06 -3.75 10.05 -8.02 10.77 -9.22 0.41 -0.69 1.55 -2.13 2.51 -3.20 0.96 -1.07 2.17 -2.51 2.65 -3.20 0.52 -0.65 2.20 -2.37 3.82 -3.78 2.27 -2 3.17 -3.06 4.20 -4.99 0.69 -1.34 2.20 -3.61 3.34 -4.99 1.10 -1.41 2.03 -2.79 2.03 -3.06 0 -0.76 -1.20 -1.03 -2.13 -0.55 -1.55 0.83 -5.71 3.75 -7.29 5.13 -0.89 0.76 -1.89 1.38 -2.20 1.38 -1.55 0 -5.06 2.17 -7.95 4.95 -2.58 2.48 -3.27 2.96 -5.02 3.44 -1.14 0.34 -5.30 2.20 -9.29 4.16 -8.50 4.16 -16.20 6.88 -20.64 7.22 -2.72 0.24 -7.50 1.75 -10.67 3.34 -3.54 1.82 -4.75 2.03 -14.97 2.55 -12.66 0.65 -14.48 0.86 -19.44 2.20 -5.40 1.48 -8.98 1.51 -16 0.21 -2.75 -0.52 -7.53 -1.38 -10.67 -1.89 -4.30 -0.72 -6.19 -1.24 -7.74 -2 -2.44 -1.20 -6.12 -2.61 -8.81 -3.34 -2.31 -0.65 -5.06 -2.41 -7.26 -4.68 -0.86 -0.93 -3.20 -2.75 -5.16 -4.06 -2.44 -1.62 -4.03 -2.99 -4.95 -4.23 -0.79 -1.03 -2.79 -3.34 -4.51 -5.13 -1.69 -1.79 -3.61 -4.03 -4.23 -4.99 -0.65 -0.93 -2.41 -2.96 -3.96 -4.47 -3.30 -3.30 -6.85 -8.50 -8.64 -12.69 -0.72 -1.69 -2 -3.96 -2.82 -5.09 -1.44 -1.93 -1.55 -2.24 -1.82 -5.02 -0.14 -1.65 -0.62 -3.92 -1 -5.06 -0.41 -1.14 -0.96 -3.72 -1.20 -5.75 -0.31 -2.24 -0.76 -4.23 -1.20 -5.09 -0.41 -0.79 -1.20 -3.10 -1.75 -5.09 -0.58 -2.03 -1.34 -4.09 -1.72 -4.61 -1 -1.41 -0.89 -4.89 0.17 -6.85 1.44 -2.58 2.65 -10.49 3.85 -25.63 0.21 -2.55 -0.17 -3.78 -1.93 -5.99 -0.58 -0.72 -0.69 -1.41 -0.72 -4.30 0 -1.89 0.17 -3.89 0.38 -4.47 0.21 -0.55 0.52 -3.27 0.69 -6.02 0.21 -3.72 0.52 -5.78 1.20 -8.08 0.48 -1.69 1.03 -4.33 1.20 -5.85 0.24 -2.31 0.65 -3.47 2.41 -7.22 3.13 -6.61 6.54 -13.69 6.92 -14.28 1.86 -3.03 2.41 -4.13 2.55 -5.16 0.24 -1.62 2.51 -6.12 3.27 -6.54 1.17 -0.62 4.44 -5.06 5.81 -7.91 0.79 -1.62 1.96 -3.65 2.58 -4.58 1.10 -1.51 1.44 -2.58 2.06 -6.47 0.31 -1.79 1.79 -3.85 3.65 -5.06 0.93 -0.58 2.03 -1.58 2.48 -2.20 1.48 -2.03 5.61 -5.85 7.43 -6.88 1 -0.58 2.34 -1.69 2.99 -2.48 3.51 -4.20 4.92 -5.92 6.02 -7.29 0.65 -0.83 2.37 -2.55 3.82 -3.82 1.44 -1.27 3.06 -2.86 3.58 -3.47 0.52 -0.62 1.65 -1.51 2.55 -1.93 0.86 -0.45 2.10 -1.48 2.75 -2.27 2.44 -3.03 5.40 -3.41 26.90 -3.44 13.52 0 16.24 0.07 17.27 0.52 1.41 0.58 4.13 0.65 6.43 0.14 3.44 -0.72 3.82 -0.72 5.61 -0.21 0.96 0.31 4.51 0.79 7.81 1.10 7.02 0.65 6.64 0.55 10.01 2.10 1.58 0.72 3.78 1.38 5.68 1.69 1.69 0.28 3.61 0.65 4.27 0.86 2.48 0.72 5.54 1.07 12.21 1.38 6.61 0.28 9.19 0.62 15.65 2.06 1.62 0.34 4.16 0.72 5.71 0.83 4.75 0.31 8.15 1.96 9.94 4.78 3.23 5.16 4.92 6.40 10.05 7.43 4.89 0.96 5.26 1.31 7.60 6.57 1.34 3.06 2.37 4.16 5.30 5.68 1.38 0.72 2.99 1.65 3.54 2.10 0.58 0.41 2.34 1.38 3.96 2.13 4.33 2 4.95 2.79 5.54 6.78 0.21 1.62 1.03 3.58 3.54 8.43 3.17 6.23 3.82 7.98 5.23 14.38 0.28 1.17 0.69 2.58 0.93 3.10 0.28 0.52 1 2.41 1.62 4.20 1.17 3.30 1.17 3.30 0.69 7.81 -0.31 3.10 -0.38 7.05 -0.24 12.87 0.10 5.16 0.03 8.98 -0.17 9.94 -0.69 3.10 2.86 19.95 4.27 20.23 0.76 0.14 2.55 -1.48 3.54 -3.17 0.45 -0.79 1.24 -2.82 1.72 -4.51 0.96 -3.34 3.37 -8.12 6.12 -12.18 0.93 -1.41 2.24 -3.68 2.86 -5.06 2.06 -4.44 3.78 -5.44 7.60 -4.47 1.17 0.31 3.03 0.55 4.20 0.55 2.27 0 2.65 -0.45 1.58 -1.86 -1.86 -2.48 2.13 -6.85 5.75 -6.26 0.76 0.14 2 0.55 2.79 0.93 1.93 1 3.82 0.72 7.60 -1.03 3.68 -1.79 4.89 -2.03 6.33 -1.27 1.51 0.79 1.89 1.72 1.69 3.89 -0.17 1.79 -0.69 3.03 -2.13 5.50 -0.65 1.07 -0.65 1.07 0.17 2.89 0.96 2.03 1.14 5.02 0.38 5.95 -0.38 0.45 -1.17 0.55 -3.85 0.55 -6.06 0 -8.64 1.51 -10.97 6.47 -0.79 1.65 -2.48 4.47 -3.78 6.26 -2.79 3.92 -3.78 5.71 -3.78 6.88 0 1.55 -0.62 3.10 -2.34 5.78 -2.86 4.47 -6.26 10.91 -8.36 15.76 -1.10 2.55 -2.65 5.57 -3.44 6.74 -0.79 1.17 -1.75 2.86 -2.13 3.72 -0.76 1.72 -1.93 3.34 -4.44 6.12 -0.89 1.03 -1.65 2 -1.65 2.20 0 0.17 -0.62 1.65 -1.38 3.27 -0.86 1.86 -1.38 3.44 -1.38 4.30 0 2.24 1.51 4.61 5.50 8.70 5.57 5.71 11.70 13.52 12.35 15.69 0.28 0.93 0.34 2.41 0.21 4.40 -0.17 1.96 -0.14 3.27 0.10 3.72 0.45 0.83 5.50 5.13 7.64 6.50 0.86 0.55 2.13 1.48 2.89 2.10 0.72 0.62 2.37 1.44 3.61 1.86 3.34 1.10 5.30 3.27 7.26 7.84 0.79 1.93 1.72 3.82 2.06 4.27 1.10 1.41 1.72 2.96 1.72 4.33 0 1.79 -0.41 2.82 -1.89 4.75 -0.69 0.89 -1.51 2.61 -1.93 3.99 -1.34 4.54 -3.78 5.85 -7.91 4.23 -1.20 -0.48 -3.20 -1.10 -4.44 -1.41 -2.61 -0.69 -3.17 -0.93 -5.02 -2.44 -0.76 -0.65 -3.10 -1.96 -5.16 -2.92 -2.41 -1.14 -4.54 -2.41 -5.95 -3.65 -1.24 -1.03 -3.06 -2.24 -4.03 -2.68 -1.31 -0.58 -2.17 -1.27 -3.03 -2.48 -1.17 -1.62 -4.47 -4.16 -7.26 -5.54 -0.76 -0.34 -2.68 -1.10 -4.27 -1.58 -4.92 -1.58 -9.60 -4.37 -11.49 -6.85 -1.82 -2.41 -4.75 -3.61 -6.67 -2.82 -2.65 1.10 -5.85 4.71 -6.98 7.78 -0.48 1.31 -1.38 2.72 -2.75 4.23 -1.10 1.20 -2.34 2.92 -2.72 3.78 -0.38 0.86 -1.14 2.24 -1.72 3.06 -0.55 0.83 -1.34 2.31 -1.72 3.30 -0.52 1.41 -1.38 2.44 -4.16 5.09 -3.47 3.30 -3.54 3.41 -5.92 8.29 -2.58 5.30 -3.85 7.09 -5.37 7.47 -0.52 0.10 -1.27 0.45 -1.72 0.72 -0.72 0.48 -0.76 0.69 -0.55 2.48 0.14 1.48 0.07 2.34 -0.34 3.34 -0.89 2.10 -1.82 2.86 -4.47 3.65 -1.34 0.41 -2.68 0.93 -2.99 1.20 -0.38 0.34 -1.48 0.48 -3.61 0.48 -3.10 0 -3.10 0 -5.13 -2.10 z  m -78.44 -37.98 c 2.86 -0.45 6.40 -1.07 7.91 -1.38 2.03 -0.41 4.27 -0.52 8.43 -0.45 7.43 0.14 12.97 -0.79 16.69 -2.82 3.23 -1.75 4.40 -2.03 9.67 -2.41 3.61 -0.28 5.06 -0.52 7.29 -1.34 3.61 -1.34 5.95 -2.55 8.53 -4.37 2.51 -1.79 5.68 -3.20 10.11 -4.44 1.79 -0.52 3.65 -1.14 4.13 -1.38 0.48 -0.24 2.79 -2.10 5.16 -4.09 3.85 -3.30 4.51 -3.75 6.71 -4.37 3.92 -1.14 4.37 -1.38 6.67 -3.58 1.20 -1.14 2.65 -2.48 3.17 -2.99 1.89 -1.75 1 -3.68 -2.82 -6.02 -0.83 -0.55 -1.48 -1.38 -2.17 -2.82 -1.31 -2.82 -7.05 -8.67 -10.18 -10.36 -3.47 -1.89 -5.09 -2.37 -7.78 -2.41 -1.51 0 -3.20 -0.28 -4.47 -0.69 -2.31 -0.79 -2.44 -0.79 -7.12 0.93 -2.96 1.07 -3.65 1.20 -5.57 1.07 -4.54 -0.38 -6.92 -2.99 -6.64 -7.26 0.14 -2.34 2 -6.74 5.16 -12.39 1.10 -1.93 1.72 -3.44 1.72 -4.16 0 -0.62 -0.62 -2.34 -1.41 -3.92 -0.79 -1.55 -1.41 -3.27 -1.41 -3.78 0 -1.65 1.31 -4.37 2.41 -5.02 0.55 -0.31 1.75 -1.44 2.65 -2.48 1.75 -2.03 3.03 -2.89 4.27 -2.89 0.41 0 2.03 0.69 3.61 1.55 4.54 2.48 6.95 3.27 10.05 3.27 1.82 0 3.10 0.21 4.06 0.65 0.79 0.34 2.27 0.89 3.30 1.20 1.24 0.34 2.68 1.17 4.09 2.31 1.20 1 3.13 2.24 4.27 2.75 2.03 0.96 6.88 2.37 8.15 2.37 0.38 0 2.03 0.45 3.65 1.03 1.65 0.55 4.47 1.24 6.30 1.51 1.82 0.31 4.37 1 5.68 1.55 3.96 1.65 9.08 3.51 10.22 3.68 0.62 0.10 1.48 -0.03 1.93 -0.28 1.34 -0.72 5.40 -7.02 6.57 -10.18 0.55 -1.58 1.55 -3.85 2.20 -5.06 0.79 -1.51 1.24 -2.89 1.41 -4.37 0.10 -1.20 0.58 -3.61 1.07 -5.33 1.51 -5.68 1.58 -7.36 0.76 -15.79 -0.65 -6.57 -0.72 -8.08 -0.38 -10.77 0.31 -2.31 0.31 -3.68 0.03 -5.19 -0.28 -1.48 -0.28 -3.20 -0.03 -6.19 0.55 -6.36 -0.65 -19.06 -2.20 -22.71 -0.28 -0.65 -0.79 -2.34 -1.17 -3.75 -0.41 -1.55 -1.14 -3.20 -1.86 -4.16 -0.62 -0.86 -2.24 -3.82 -3.58 -6.54 -2.51 -5.16 -3.78 -7.12 -5.95 -9.25 -2.99 -2.89 -4.82 -4.30 -7.40 -5.75 -2.34 -1.27 -2.86 -1.72 -3.68 -3.20 -1.17 -2.20 -3.27 -3.99 -5.50 -4.71 -0.96 -0.31 -2.37 -0.93 -3.13 -1.38 -0.76 -0.41 -2.24 -1.10 -3.34 -1.51 -1.34 -0.52 -2.51 -1.27 -3.85 -2.65 -1.07 -1.07 -1.93 -2.06 -1.93 -2.20 0 -0.14 -0.55 -0.58 -1.17 -1 -0.89 -0.55 -2.10 -0.79 -4.92 -1.03 -2.48 -0.21 -4.58 -0.62 -6.30 -1.20 -2.24 -0.83 -2.92 -0.89 -5.16 -0.72 -2.51 0.21 -8.91 -0.58 -12.04 -1.51 -0.65 -0.17 -2.51 -0.34 -4.16 -0.34 -2.51 0 -3.06 0.10 -3.72 0.72 -1.20 1.14 -0.83 2.06 1.17 2.82 3.13 1.14 3.51 2.48 2 7.12 -0.76 2.41 -3.92 5.85 -5.37 5.85 -1.07 0 -1.03 0 -0.62 -1.14 0.83 -2.17 -1.17 -4.85 -4.47 -6.06 -1.48 -0.55 -2.13 -1.07 -2.99 -2.27 -0.76 -1.10 -1.69 -1.82 -3.06 -2.51 -1.10 -0.52 -2 -1.10 -2 -1.27 0 -0.21 0.65 -0.55 1.44 -0.79 1.55 -0.52 2.10 -1.34 1.51 -2.37 -0.41 -0.83 -5.13 -3.51 -7.53 -4.33 -2.27 -0.76 -3.75 -0.52 -4.27 0.65 -0.31 0.69 -0.24 1.14 0.41 2.51 0.89 1.96 0.76 3.20 -0.52 4.03 -0.45 0.31 -2.75 1 -5.06 1.55 -4.16 1 -4.33 1.03 -8.81 0.69 -2.51 -0.21 -4.75 -0.48 -4.99 -0.62 -0.21 -0.10 -2.96 -0.31 -6.09 -0.41 -5.75 -0.21 -5.75 -0.21 -7.78 -1.62 -2.41 -1.65 -5.88 -3.23 -7.12 -3.23 -0.48 0 -1.31 0.17 -1.79 0.34 -0.52 0.21 -2.03 0.52 -3.37 0.72 -1.38 0.21 -3.44 0.76 -4.64 1.24 -1.20 0.48 -2.24 0.79 -2.34 0.72 -0.21 -0.24 2.55 -4.09 3.85 -5.37 0.65 -0.62 1.17 -1.24 1.17 -1.38 -0.03 -1.20 -3.34 -2.10 -7.74 -2.10 -3.78 0 -5.85 0.76 -7.22 2.61 -5.54 7.67 -7.26 10.46 -7.50 12.32 -0.38 2.51 -2.41 6.16 -4.20 7.47 -1.27 0.89 -1.86 1.72 -2.92 3.99 -3.10 6.54 -6.02 8.53 -6.67 4.54 -0.21 -1.24 -0.31 -1.38 -1.20 -1.38 -1.38 0 -2.96 1.41 -4.06 3.58 -0.48 0.96 -1.34 2.41 -1.89 3.23 -0.55 0.79 -1.31 2.34 -1.69 3.44 -0.38 1.07 -1.20 2.75 -1.86 3.72 -0.62 0.96 -1.34 2.44 -1.55 3.27 -0.24 0.83 -1.03 2.17 -1.75 3.03 -2.27 2.55 -4.03 5.44 -4.27 6.98 -0.28 1.62 -1.79 4.78 -3.34 7.09 -0.55 0.79 -1.41 2.34 -1.89 3.44 -0.45 1.07 -2.03 4.37 -3.47 7.29 -2.55 5.13 -2.65 5.40 -2.55 7.53 0.03 1.20 -0.14 2.92 -0.41 3.85 -0.31 0.93 -0.58 4.09 -0.72 7.43 -0.17 4.30 -0.38 6.06 -0.79 6.88 -0.48 1 -0.52 1.48 -0.10 4.30 1.82 13.21 1.89 16.72 0.55 20.92 -1.20 3.85 -1.44 8.08 -0.86 17.17 0.48 7.78 0.17 6.47 4.68 19.30 0.62 1.79 1.44 4.75 1.86 6.54 0.38 1.79 1.24 4.40 1.89 5.81 0.65 1.38 1.20 2.65 1.20 2.82 0 0.79 1.55 4.23 2.31 5.13 0.48 0.58 1.89 1.72 3.17 2.58 3.27 2.17 3.51 2.41 6.06 6.02 2.37 3.37 9.46 10.49 12.66 12.69 0.89 0.62 2.75 2.13 4.13 3.34 3.03 2.72 3.89 3.20 8.50 4.61 2 0.62 4.51 1.58 5.61 2.13 3.06 1.51 9.01 2.96 14.35 3.41 2.55 0.21 5.64 0.52 6.88 0.65 3.51 0.38 3.68 0.38 9.12 -0.52 z "/>
 </g>
 <g fill="#000000">
 </g>
</svg>